<svg xmlns="http://www.w3.org/2000/svg" viewBox="0 0 151.65 151.65"><defs><style>.cls-1{fill:#fff;}.cls-2{fill:#037982;}.cls-3,.cls-4{fill:#1e1e1c;}.cls-4{font-size:54.18px;font-family:TarzanaNarOT-Bold, Tarzana Nar OT;font-weight:700;}.cls-5{letter-spacing:-0.17em;}.cls-6{letter-spacing:0.04em;}</style></defs><g id="Laag_4" data-name="Laag 4"><rect class="cls-1" width="151.65" height="151.65"/></g><g id="Vis"><path class="cls-2" d="M81.54,46.74s4.46.65,6.17,1.69a.81.81,0,0,1,.21,1.3,18.26,18.26,0,0,1-4.11,3.5,1.09,1.09,0,0,1-1.14,0L81,52a24.73,24.73,0,0,1,0,7.64,9.7,9.7,0,0,1-.62,2.18,13.14,13.14,0,0,0-1.08,7.32,2.4,2.4,0,0,0,.59,1.22c1.25,1.42,4.76,5.64,3.81,7.44-2.71,0-6.13-4.56-6.13-4.56s-.94,3.19-5.92,5.21c-.94-2.83,2.57-6.65,3.86-7.94A1.67,1.67,0,0,0,76,69.41a3.6,3.6,0,0,0-1.38-3.12c-.75-.53-1.54-1.08-2.22-1.54a1.64,1.64,0,0,1-.28-2.62l.53-.52A1.31,1.31,0,0,0,73,60.16C72.14,58,71,53.38,71,52c-.86,1.67-3.8.2-3.8.2A11.64,11.64,0,0,1,70,49.69a.83.83,0,0,0,.49-.83,57,57,0,0,1,.67-12.4,1.78,1.78,0,0,0,.07-.76c-.14-1.37.49-4,3-6.39a1.87,1.87,0,0,1,2.44,0C80,32.56,83.28,42.57,81.54,46.74Z"/></g><g id="Border"><path class="cls-3" d="M0,0V151.65H151.65V0ZM145.22,145.22H6.43V6.43H145.22Z"/></g><g id="Text"><text class="cls-4" transform="translate(19.4 69.81) scale(1.02 1)"><tspan xml:space="preserve">Ph  sh </tspan><tspan x="0" y="45.15">O</tspan><tspan class="cls-5" x="26.55" y="45.15">	</tspan><tspan class="cls-6" x="27.09" y="45.15">ff</tspan><tspan x="65.56" y="45.15">!</tspan></text></g></svg>